<?xml version="1.0" encoding="utf-8"?>
<!-- Generator: Adobe Illustrator 18.1.1, SVG Export Plug-In . SVG Version: 6.00 Build 0)  -->
<svg version="1.1" id="Layer_1" xmlns="http://www.w3.org/2000/svg" xmlns:xlink="http://www.w3.org/1999/xlink" x="0px" y="0px"
	 viewBox="0 0 480 640" enable-background="new 0 0 480 640" xml:space="preserve">
<g>
	<linearGradient id="SVGID_1_" gradientUnits="userSpaceOnUse" x1="369.8941" y1="126.3725" x2="374.5608" y2="218.3725">
		<stop  offset="0" style="stop-color:#FFFFFF"/>
		<stop  offset="1" style="stop-color:#000000"/>
	</linearGradient>
	<path fill="url(#SVGID_1_)" d="M380.2,102.4c-0.5-2.9-1.2-6-3.4-8c-3.8-3.3-10.1-1.2-13,2.9c-2.8,4.1-3.1,9.4-3.1,14.5
		c-0.2,20,1.1,40,2.2,60.1c0.7,1.3,0.7,3,0.2,4.4c0.1,1.5,0.2,3.1,0.2,4.6c0.9,1.5,1,3.5,0.2,5.2c0.1,1.7,0.2,3.5,0.2,5.2
		c0.1,0.3,0.2,0.6,0.2,0.9c0.6,1.3,0.9,2.7,0.9,4.2c0,1-0.3,2-0.9,2.8c0.2,8.7,0.3,17.4,0.1,26c0.1,0.4,0.1,0.8,0.1,1.2
		c0,0.5-0.1,1-0.2,1.5c0,0.1,0,0.3,0,0.4c0.1,0.6,0.1,1.3-0.1,1.9c-0.2,4.7-0.5,9.5-1,14.2c5.8,0,11.5,0,17.3,0
		C376.1,197.4,388.1,149.1,380.2,102.4z"/>
	<g>
		<path d="M381.6,102c-0.9-5.2-3.2-10.6-9.3-10.7c-5.1-0.1-9.3,3.5-11.2,7.9c-2.9,6.7-2,15.2-1.9,22.3c0.1,9,0.5,18.1,0.9,27.1
			c0.5,9.1,1.1,18.2,1.6,27.2c0.4,7.4,1.4,15.2,1.1,22.5c-0.7,15.3,0.1,30.6-1.3,46c-0.1,0.8,0.7,1.5,1.5,1.5c5.8,0,11.5,0,17.3,0
			c0.8,0,1.6-0.7,1.5-1.5C377.8,196.9,389.4,149.3,381.6,102c-0.3-1.9-3.2-1.1-2.9,0.8c7.7,47-3.9,94.4,0.1,141.6
			c0.5-0.5,1-1,1.5-1.5c-5.8,0-11.5,0-17.3,0c0.5,0.5,1,1,1.5,1.5c1.2-13.2,1.5-26.4,1.2-39.7c-0.1-2.9,0.6-5.5,0.7-8.4
			c0.1-2.9-1.3-5.6-1.3-8.6c0.1-5,0.1-9.9-0.4-14.9c-1.5-15.8-2.2-31.7-2.5-47.5c-0.1-7-0.9-14.6,0.5-21.4c0.8-3.9,2.6-7.5,6.5-9
			c6.1-2.3,8.5,2.8,9.4,7.8C379.1,104.7,382,103.8,381.6,102z"/>
	</g>
</g>
<g>
	<g>
		<path d="M318.3,243.5c0-2.2,0-4.5-0.1-6.7c-0.1-1.9-3.1-1.9-3,0c0.1,2.2,0.1,4.5,0.1,6.7C315.2,245.4,318.2,245.4,318.3,243.5
			L318.3,243.5z"/>
	</g>
</g>
<g>
	<linearGradient id="SVGID_2_" gradientUnits="userSpaceOnUse" x1="266.1665" y1="240.0805" x2="347.3503" y2="240.0805">
		<stop  offset="0" style="stop-color:#FFFFFF"/>
		<stop  offset="1" style="stop-color:#000000"/>
	</linearGradient>
	<path fill="url(#SVGID_2_)" d="M317,245.4c0-3.5,0-7.1,0-10.6C317,238.3,317,241.9,317,245.4L317,245.4z"/>
	<g>
		<path d="M318.5,245.4c0-3.5,0-7.1,0-10.6c0-1.9-3-1.9-3,0c0,3.5,0,7.1-0.1,10.6c0,0.8,0.7,1.5,1.5,1.5c0,0,0,0,0,0
			c1.9-0.1,1.9-3.1,0-3c0,0,0,0,0,0C317.4,244.4,317.9,244.9,318.5,245.4c0-3.5,0-7.1,0-10.6c-1,0-2,0-3,0c0,3.5,0,7.1,0,10.6
			C315.5,247.3,318.5,247.3,318.5,245.4z"/>
	</g>
</g>
<g>
	<linearGradient id="SVGID_3_" gradientUnits="userSpaceOnUse" x1="266.1665" y1="171.0258" x2="347.3503" y2="171.0258">
		<stop  offset="0" style="stop-color:#FFFFFF"/>
		<stop  offset="1" style="stop-color:#000000"/>
	</linearGradient>
	<path fill="url(#SVGID_3_)" d="M267.3,224.6c0.2,2.1,0.4,4.3,1.5,6.1c5.6,9.3,23-1.6,30,6.6c2,2.4,2.4,5.6,2.4,8.8
		c5.1-0.2,10.2-0.5,15.2-0.7c-0.1-3.7-0.2-7.5-0.2-11.2c8.5-0.6,17-1.2,25.5-1.8c1.1-0.1,2.3-0.2,3.1-1c0.7-0.7,0.8-1.8,0.9-2.8
		c2.6-26.4,2-53.2-1.7-79.5c-1.6-11.1-3.9-22.6-10.5-31.7c-10.8-14.7-30.3-20-48.5-21.4c-6.5-0.5-14.5,0.1-17.6,5.9
		c-1.9,3.6-1.2,7.9-0.6,11.9C272.4,150.4,264.3,187.8,267.3,224.6z"/>
	<g>
		<path d="M265.8,224.6c0.7,7.4,4.3,11.5,11.9,11.6c9.5,0.2,21.6-4.2,22,9.9c0,0.8,0.7,1.5,1.5,1.5c5.1-0.2,10.2-0.5,15.2-0.7
			c0.8,0,1.5-0.7,1.5-1.5c-0.1-3.7-0.2-7.5-0.2-11.2c-0.5,0.5-1,1-1.5,1.5c6.6-0.5,13.1-0.9,19.7-1.4c3.5-0.2,9.3,0.6,11-3.4
			c1.8-4.4,1.2-11.1,1.5-15.8c0.4-7.1,0.6-14.2,0.5-21.4c-0.1-13.6-1-27.2-2.8-40.7c-1.4-11-3.1-22.3-8.6-32.1
			c-9.9-17.7-30.5-24.2-49.6-26.1c-7.3-0.7-17.7-1.2-21.8,6.4c-1.9,3.6-1.5,7.7-1,11.6c1,7.3,1.8,14.6,2,22
			C268.2,164.7,263.5,194.6,265.8,224.6c0.1,1.9,3.1,1.9,3,0c-1.7-22.3,0.4-44.6,1.2-66.9c0.4-11.4,0.5-22.9-0.6-34.3
			c-0.4-4.7-1.5-9.4-1.7-14.1c-0.4-7.1,3.6-10.9,10.5-11.7c8.8-1,18.6,1,27.1,3.5c8.6,2.5,17,6.5,23.4,13c7.7,7.8,11,18.3,12.9,28.8
			c2,11,3.1,22.2,3.7,33.4c0.8,12.9,0.8,25.9,0.1,38.9c-0.2,3.2-0.2,6.5-0.7,9.7c-0.4,2.4,0.3,4.4-2.9,6.1c-1.3,0.7-4.4,0.3-5.9,0.4
			c-6.6,0.5-13.1,0.9-19.7,1.4c-0.8,0.1-1.5,0.6-1.5,1.5c0.1,3.7,0.2,7.5,0.2,11.2c0.5-0.5,1-1,1.5-1.5c-5.1,0.2-10.2,0.4-15.2,0.7
			c0.5,0.5,1,1,1.5,1.5c-0.3-7.6-3.6-13-11.6-13.5c-8.6-0.6-21.1,4.8-22.4-8C268.6,222.7,265.6,222.7,265.8,224.6z"/>
	</g>
</g>
<g>
	<linearGradient id="SVGID_4_" gradientUnits="userSpaceOnUse" x1="239.5073" y1="221.3367" x2="234.174" y2="167.3367">
		<stop  offset="0" style="stop-color:#FFFFFF"/>
		<stop  offset="1" style="stop-color:#000000"/>
	</linearGradient>
	<path fill="url(#SVGID_4_)" d="M224.5,249.9c6.6-0.3,13.2-0.6,19.8-0.9c0.8-42,1.7-84.1,2.5-126.1c0.1-5.3,0.2-10.8-1.5-15.8
		c-1.7-5-5.7-9.6-10.9-10.6c-6.6-1.2-13,3.8-15.8,9.9c-2.7,6.1-2.6,13.1-2.3,19.8C217.7,167.6,220.5,208.8,224.5,249.9z"/>
	<g>
		<path d="M224.5,251.4c6.6-0.3,13.2-0.6,19.8-0.9c0.8,0,1.5-0.7,1.5-1.5c0.5-23.6,0.9-47.3,1.4-70.9c0.2-11.8,0.5-23.6,0.7-35.5
			c0.2-10.5,1.8-22.1-0.3-32.5c-1.4-6.9-5.9-13.9-13.3-15.1c-7.4-1.2-14.1,4.3-17,10.7c-4,8.7-2.6,19.2-2.2,28.4
			c0.5,11.8,1,23.6,1.7,35.4c1.5,26.8,3.6,53.7,6.3,80.4c0.2,1.9,3.2,1.9,3,0c-4-41.1-6.9-82.4-8.3-123.7
			c-0.3-9.3-0.5-21.1,8.6-26.6c4.9-2.9,10.4-2,14.2,2.2c3.8,4.2,4.7,10.2,4.8,15.7c0.5,20.4-0.7,41.1-1.2,61.5
			c-0.5,23.3-0.9,46.6-1.4,69.9c0.5-0.5,1-1,1.5-1.5c-6.6,0.3-13.2,0.6-19.8,0.9C222.6,248.5,222.6,251.5,224.5,251.4z"/>
	</g>
</g>
<g>
	<linearGradient id="SVGID_5_" gradientUnits="userSpaceOnUse" x1="161.7506" y1="188.2709" x2="167.7506" y2="100.2709">
		<stop  offset="0" style="stop-color:#FFFFFF"/>
		<stop  offset="1" style="stop-color:#000000"/>
	</linearGradient>
	<path fill="url(#SVGID_5_)" d="M148.9,239.4c2.6,3.9,4.6,8.2,5.7,12.8c4.9-0.1,9.9-0.2,14.8-0.3c0.2-4.2,2.1-8.6,4.7-12
		c4.3-5.6,10.3-9.8,15-15c7.3-8.1,11.3-18.6,14.5-29c4.6-15.3,7.7-31.4,6-47.3c-1.7-15.9-8.6-31.7-21-41.8s-30.8-13.3-44.9-5.8
		c-16.8,9-23.5,29.7-25.6,48.7c-2.6,23.6-0.3,49,13.5,68.3C136.9,225.4,143.8,231.7,148.9,239.4z"/>
	<g>
		<path d="M147.6,240.2c2.5,3.9,4.3,7.9,5.5,12.4c0.2,0.6,0.8,1.1,1.4,1.1c4.9-0.1,9.9-0.2,14.8-0.3c0.9,0,1.4-0.7,1.5-1.5
			c1.5-14.3,17.2-21.5,24.4-32.8c7-11,10.8-24.5,13.5-37.2c5.2-24.2,3.9-51.7-13.5-70.9c-14.2-15.7-39.6-21.5-57.3-8.1
			c-17.7,13.4-21.8,39-22.3,59.8c-0.4,14.1,1.4,28.5,6.8,41.7C128.2,218.3,139.2,227.9,147.6,240.2c1.1,1.6,3.7,0.1,2.6-1.5
			c-6.9-10.1-16.1-18.2-21.9-29.1c-5.7-10.7-8.4-22.7-9.3-34.8c-1.5-20.7,0.6-46.6,14.3-63.3c15.7-19.2,44.1-15.8,59.9,1.5
			c17.6,19.4,17.7,47.6,11.9,71.6c-3.3,13.6-7.5,28.4-17,39.1c-8,8.9-18.8,15.1-20.2,28.1c0.5-0.5,1-1,1.5-1.5
			c-4.9,0.1-9.9,0.2-14.8,0.3c0.5,0.4,1,0.7,1.4,1.1c-1.2-4.7-3.2-9-5.8-13.1C149.1,237,146.5,238.5,147.6,240.2z"/>
	</g>
</g>
<g>
	<linearGradient id="SVGID_6_" gradientUnits="userSpaceOnUse" x1="84.5334" y1="254.3407" x2="86.5334" y2="109.0073">
		<stop  offset="0" style="stop-color:#FFFFFF"/>
		<stop  offset="1" style="stop-color:#000000"/>
	</linearGradient>
	<path fill="url(#SVGID_6_)" d="M115.5,252.8c-0.1-14.1-0.2-28.2-0.2-42.3c0-7.7-1.2-17.1-8.4-19.9c-2.7-1.1-6.5-1.4-7.3-4.3
		c-0.4-1.5,0.3-3.2-0.4-4.6c-0.7-1.4-2.4-1.9-3.8-2.7c-4.3-2.8-3.6-9.1-2.6-14.1c3.3-16.3,4.5-33,3.6-49.7c-0.3-4.5-0.7-9.2-3-13.1
		c-2.3-3.9-6.8-6.9-11.3-5.9c-7,1.5-8.8,10.6-8.9,17.7c-0.3,21.9,1.7,43.7,5.8,65.2c-6.1-0.6-11.7,6.3-9.7,12.1
		c-5.2-1.1-10.4,2.6-12.7,7.4c-2.3,4.7-2.4,10.2-2.4,15.5c-0.1,15-0.3,30.1-0.4,45.1C74,254.7,94.7,253.3,115.5,252.8z"/>
	<g>
		<path d="M117,252.8c-0.1-11.2-0.1-22.4-0.2-33.6c0-7.5,0.8-16-2.5-23c-1.2-2.6-3-5-5.6-6.4c-1.2-0.6-2.4-1-3.7-1.4
			c-0.7-0.3-2.2-0.5-2.8-1.1c-2.2-2-0.9-2.6-1.3-4.6c-0.8-3.5-3.1-3.3-5.4-5.6c-3.9-3.7-1.3-11.3-0.5-15.6
			c1.9-10.2,2.9-20.6,3.2-30.9c0.2-8.9,1.1-20.3-3.1-28.5c-2.7-5.2-8.9-9.2-14.8-6.9c-5.5,2.2-7.5,8.4-8.2,13.8
			c-1.5,11-0.3,22.8,0.6,33.9c1,12.3,2.6,24.6,5,36.7c0.5-0.6,1-1.3,1.4-1.9c-7.4-0.1-12.9,6.8-11.2,14c0.6-0.6,1.2-1.2,1.8-1.8
			c-12.2-1.6-16.6,10.9-17,20.8c-0.6,16.2-0.3,32.5-0.5,48.7c0,1,1,1.7,1.9,1.4c20.1-4.5,40.7-5.9,61.3-6.4c1.9,0,1.9-3,0-3
			c-20.8,0.5-41.7,2-62.1,6.5c0.6,0.5,1.3,1,1.9,1.4c0.1-11.8,0.2-23.5,0.3-35.3c0.1-9.2-2.2-33.4,13.3-31.3
			c1.1,0.2,2.1-0.6,1.8-1.8c-1.3-5.3,2.8-10.3,8.3-10.2c1,0,1.6-1,1.4-1.9c-3.6-19.1-5.6-38.6-5.8-58c-0.1-6.5-1-16.6,4.5-21.4
			c4.4-3.8,10.3-0.7,12.8,3.6c2.8,4.7,2.8,10.8,3,16.2c0.4,9.3,0,18.6-0.9,27.8c-0.9,8.1-3.7,16.5-3.6,24.6c0,2.3,0.5,4.7,1.8,6.6
			c0.6,0.9,1.4,1.6,2.3,2.2c0.5,0.3,1.2,0.5,1.6,0.9c1.7,1.5,1.2,3.4,1.9,5.2c1.8,5.3,7.7,4.1,11.3,7.7c6.1,6.1,4.4,18.3,4.5,26.1
			c0.1,10.9,0.1,21.8,0.2,32.7C114,254.7,117,254.7,117,252.8z"/>
	</g>
</g>
<g>
	<linearGradient id="SVGID_7_" gradientUnits="userSpaceOnUse" x1="84.9246" y1="374.3259" x2="84.2579" y2="530.9926">
		<stop  offset="0" style="stop-color:#FFFFFF"/>
		<stop  offset="1" style="stop-color:#000000"/>
	</linearGradient>
	<path fill="url(#SVGID_7_)" d="M87.9,537.1c5.8-0.4,8.2-7.5,8.8-13.3c1.8-16,0.9-32.3-2.6-47.9c-1.3-6-2.8-13.1,1.4-17.6
		c1.4-1.5,3.3-2.6,4-4.5c0.7-1.9,0-4,0.6-6c1.1-3.7,5.8-4.6,8.8-7c3.7-3,4.6-8.2,5.1-12.9c2-18.2,2.6-36.5,1.7-54.7
		c-20.6,1.2-41.3,5-61.8,2.3c-0.1,12.8-0.2,25.6-0.3,38.4c-0.1,10.3,0.5,22.2,8.7,28.5c2.8,2.1,6.2,3.4,8.7,5.7
		c2.6,2.4,4,6.7,1.7,9.3c4.1-0.1,5.7,5.2,5.8,9.3c0.5,20.1-6.2,40.6-0.7,59.9C79.2,531.8,82.7,537.4,87.9,537.1"/>
	<g>
		<path d="M88.3,538.5c5.1-0.8,7.7-5.2,9-9.9c2.1-7.6,1.9-16.3,1.7-24.1c-0.2-8.5-1.1-17-2.7-25.3c-0.8-3.9-2-8-2.1-12
			c-0.1-4.9,1.9-6.9,5-10.4c1.7-1.9,1.9-3.5,2.1-6c0.4-5.2,3.8-5.6,7.4-8c4.6-3.1,5.9-8.2,6.6-13.4c2.5-18.5,2.7-37.5,1.8-56.1
			c0-0.8-0.7-1.6-1.5-1.5c-20.6,1.3-41.2,4.8-61.8,2.3c-0.8-0.1-1.5,0.8-1.5,1.5c-0.1,9-0.2,17.9-0.2,26.9c-0.1,7.4-0.5,15,0.3,22.4
			c0.6,5.5,2,11.2,5.6,15.6c3.5,4.4,17.9,9.4,13.4,16.4c-0.7,1,0.2,2.1,1.3,2.3c7.4,0.8,3.9,19.8,3.5,24.3c-0.8,8.5-2,17-2.1,25.6
			c0,9.2,0.7,29.3,13.8,29.7c1.9,0.1,1.9-2.9,0-3c-9.5-0.3-10.5-16.3-10.7-23.1c-0.3-8.5,0.7-17,1.6-25.5c0.8-7.4,2.2-15.5,0.9-22.9
			c-0.7-4.1-2.7-7.6-7-8.1c0.4,0.8,0.9,1.5,1.3,2.3c2.9-4.5,0.4-9.4-3.4-12.3c-3-2.3-6.7-3.6-9.3-6.4c-2.8-3-4.3-6.9-5.2-10.9
			c-1.7-7.9-1.1-16.3-1-24.3c0.1-9.6,0.2-19.2,0.2-28.8c-0.5,0.5-1,1-1.5,1.5c20.7,2.5,41.2-1,61.8-2.3c-0.5-0.5-1-1-1.5-1.5
			c0.8,16.9,0.4,33.9-1.2,50.8c-0.4,3.9-0.6,8.1-2.2,11.7c-1.7,3.8-4.5,4.8-7.7,6.8c-1.5,0.9-3,2-3.9,3.7c-1.6,3.2-0.3,6.3-2.9,9.3
			c-3.6,4.2-5.4,7.3-4.9,13.1c0.6,7.5,3,14.9,3.8,22.4c1,8.3,1.2,16.7,0.7,25c-0.3,6.1-0.2,18.2-8.4,19.5
			C85.6,535.9,86.4,538.8,88.3,538.5L88.3,538.5z"/>
	</g>
</g>
<g>
	<linearGradient id="SVGID_8_" gradientUnits="userSpaceOnUse" x1="151.6871" y1="455.3842" x2="175.0199" y2="455.3842">
		<stop  offset="0" style="stop-color:#FFFFFF"/>
		<stop  offset="1" style="stop-color:#000000"/>
	</linearGradient>
	<path fill="url(#SVGID_8_)" d="M152.9,372.6c-0.4,47.9-0.8,95.8-1.2,143.7c0,5.1,0,10.4,2.2,15c2.3,4.6,7.6,8,12.4,6.5
		c6.4-2,7.7-10.4,7.8-17.1c1.1-49.4,2.1-99.1-4.1-148.1C164.4,372.6,158.6,372.6,152.9,372.6z"/>
	<g>
		<path d="M151.4,372.6c-0.2,25.6-0.4,51.2-0.6,76.8c-0.1,12.6-0.2,25.3-0.3,37.9c-0.1,12-1.3,24.7,0,36.6c0.8,7,4.7,14.9,12.6,15.6
			c7.8,0.7,11.3-6.8,12.2-13.3c1.6-10.7,0.8-22.1,1-33c0.2-12.4,0.3-24.7,0.2-37.1c-0.2-27.9-1.4-55.9-4.9-83.6
			c-0.1-0.8-0.6-1.5-1.5-1.5c-5.7,0-11.5,0-17.2,0c-1.9,0-1.9,3,0,3c5.7,0,11.5,0,17.2,0c-0.5-0.5-1-1-1.5-1.5
			c5.4,43.3,5.3,87,4.5,130.5c-0.1,5.2-0.2,10.4-0.3,15.6c-0.1,4.6-0.1,9.7-2.4,13.8c-3.5,6.1-10.9,4.5-14.4-0.8
			c-3.1-4.7-2.8-11-2.7-16.4c0.2-22.3,0.4-44.6,0.5-66.9c0.2-25.3,0.4-50.6,0.6-75.9C154.4,370.7,151.4,370.7,151.4,372.6z"/>
	</g>
</g>
<g>
	<linearGradient id="SVGID_9_" gradientUnits="userSpaceOnUse" x1="233.9966" y1="456.6451" x2="332.3362" y2="456.6451">
		<stop  offset="0" style="stop-color:#FFFFFF"/>
		<stop  offset="1" style="stop-color:#000000"/>
	</linearGradient>
	<path fill="url(#SVGID_9_)" d="M255.3,401c-4.3-2.7-9.2-4.9-11.7-9.2c-2.1-3.7-2-8.2-1.8-12.4c0.1-3.1,0.3-6.1,0.4-9.2
		c-3.7,0.2-7.4,0.3-11.1,0.5c0.6,14.4,0.2,30.2-9.8,40.4c-2.8,2.9-6.2,5.1-9.1,7.8c-8.7,8-12.8,19.9-15.5,31.4
		c-5.5,23.9-6.1,48.9-1.8,73c0.9,5.1,2.3,10.7,6.5,13.9c2.7,2.1,6.3,2.8,9.7,3.3c7,1.2,14.1,2,21.1,2.4c16,1,33.9-0.4,45.2-11.9
		c6.8-6.9,10.1-16.4,11.8-25.9c3.3-19.8-0.1-40.1-5.8-59.3C278.2,428.5,270.5,410.6,255.3,401z"/>
	<g>
		<path d="M256,399.7c-5-3.1-11-5.7-12.4-12c-1.2-5.5-0.2-11.9,0-17.5c0-0.8-0.7-1.5-1.5-1.5c-3.7,0.2-7.4,0.3-11.1,0.5
			c-0.8,0-1.5,0.7-1.5,1.5c0.5,13.1,0.7,28.5-8.9,38.8c-4.4,4.7-10,8-14,13.1c-3.9,5-6.6,10.8-8.6,16.7c-4.7,13.9-6.8,29-7.5,43.6
			c-0.7,14.7-0.3,30.7,3.6,45c1.3,4.8,3.6,9.3,8.1,11.7c5.3,2.8,12.2,3.1,18.1,3.8c13.1,1.6,27.1,2.5,40-1.2
			c28.1-8,33.2-38.7,30.8-64.1c-1.5-16-5.5-32.1-11.5-47C274.7,418.6,267.4,407.1,256,399.7c-1.6-1.1-3.1,1.5-1.5,2.6
			c21,13.8,28.5,42.6,32.5,65.9c4.3,25.2,3.4,61.4-25.8,70.7c-11.8,3.7-24.6,3.1-36.7,1.9c-6.4-0.6-14.1-0.8-20-3.6
			c-6.8-3.2-7.8-11.4-8.8-18c-2.2-14.2-2.7-28.6-1.5-42.9c1.1-13.9,3.4-28.8,9-41.6c2.7-6.1,6.4-11.6,11.4-15.9
			c4.8-4.2,9.6-7.6,12.8-13.3c5.8-10.5,5.8-23.1,5.3-34.8c-0.5,0.5-1,1-1.5,1.5c3.7-0.2,7.4-0.3,11.1-0.5c-0.5-0.5-1-1-1.5-1.5
			c-0.3,6.5-1.8,14.5,0.8,20.7c2.4,5.7,8.1,8.4,13,11.4C256.1,403.3,257.7,400.7,256,399.7z"/>
	</g>
</g>
<g>
	<linearGradient id="SVGID_10_" gradientUnits="userSpaceOnUse" x1="298.2641" y1="451.9036" x2="322.8647" y2="451.9036">
		<stop  offset="0" style="stop-color:#FFFFFF"/>
		<stop  offset="1" style="stop-color:#000000"/>
	</linearGradient>
	<path fill="url(#SVGID_10_)" d="M299,368.3l-0.7,107.3c-0.1,16.6-0.2,33.4,3,49.7c0.8,3.9,2.1,8.3,5.6,10c4,2,9.2-0.5,11.6-4.3
		c2.4-3.8,2.8-8.5,3-13.1c2.9-50.1,1.1-100.5-5.2-150.2C310.5,368,304.8,368.1,299,368.3z"/>
	<g>
		<path d="M297.5,368.3c-0.2,29.5-0.4,59-0.6,88.4c-0.1,16.5-0.7,33.1,0.4,49.6c0.6,8.4,0.4,34.5,15.1,31c6-1.5,9-7.3,9.9-12.9
			c1.5-8.8,1.3-18,1.5-26.8c1.4-43.3-0.7-86.7-6.1-129.7c-0.1-0.8-0.6-1.5-1.5-1.5c-5.8,0.2-11.5,0.4-17.3,0.5c-1.9,0-1.9,3,0,3
			c5.8-0.1,11.5-0.3,17.3-0.5c-0.5-0.5-1-1-1.5-1.5c4.4,35.2,6.7,70.8,6.6,106.3c0,8.8-0.2,17.6-0.5,26.4
			c-0.3,8.3,0.6,18.5-2.1,26.4c-1.6,4.8-7.8,10.9-12.8,5.9c-2.8-2.7-3.3-8-3.9-11.6c-1.5-9.3-2.1-18.8-2.2-28.3
			c-0.5-29.8,0.3-59.8,0.5-89.6c0.1-11.7,0.2-23.3,0.2-35C300.5,366.3,297.5,366.3,297.5,368.3z"/>
	</g>
</g>
<g>
	<g>
		<path d="M356.7,533.3c-3.1-13.5-6.6-27-9.1-40.6c-2.5-14.1-2.8-28.2-2.2-42.5c1.2-28,6-55.6,12-82.9c0.4-1.9-2.5-2.7-2.9-0.8
			c-6.1,27.6-11,55.5-12.1,83.7c-0.6,13.9-0.3,27.7,2,41.4c2.4,14.3,6.2,28.4,9.4,42.5C354.2,535.9,357.1,535.1,356.7,533.3
			L356.7,533.3z"/>
	</g>
</g>
<g>
	<g>
		<path d="M346.1,370.8c-15.9,52.3-21.2,110.6,3.1,161.3c0.8,1.7,3.4,0.2,2.6-1.5c-23.9-49.9-18.4-107.5-2.8-158.9
			C349.6,369.8,346.7,369,346.1,370.8L346.1,370.8z"/>
	</g>
</g>
<g>
	<g>
		<path d="M358.5,369.6c-2.1,30.1-4.6,60.1-5.4,90.2c-0.4,14.9-0.8,30,0.7,44.8c0.6,6.2,1.4,12,3,18.1c0.8,2.9,0.6,5.6,1.5,8.4
			c0.9,2.7,1.8,5.2,3.3,7.6c0.4,0.7,1.4,1,2.1,0.5c1.4-0.9,2.7-1.1,3.5-2.5c1.1-2.1,0.5-6.3,0.6-8.7c0.4-7.6,0.6-15.2,0.9-22.8
			c0.5-15.5,0.7-30.9,0.8-46.4c0.2-31-0.2-61.9-0.3-92.9c0-1.9-3-1.9-3,0c0.1,29,0.4,58,0.3,87c-0.1,14.5-0.2,28.9-0.6,43.4
			c-0.2,6.9-0.4,13.9-0.7,20.8c-0.1,3.6-0.3,7.3-0.5,10.9c-0.2,3.3,0.4,6.6-2.7,8.7c0.7,0.2,1.4,0.4,2.1,0.5
			c-3.2-5.4-3.3-11.1-5-16.9c-2-6.7-2.5-14.3-2.8-21.3c-0.8-14.3-0.6-28.8-0.1-43.1c0.9-28.8,3.3-57.6,5.3-86.3
			C361.7,367.7,358.7,367.7,358.5,369.6L358.5,369.6z"/>
	</g>
</g>
<g>
	<g>
		<path d="M376,532.7c3.3-12.8,2.1-25.6,2.6-38.6c0.5-14.2,0.8-28.4,0.7-42.6c-0.3-28.6-1.9-57.1-4-85.6c-0.1-1.9-3.1-1.9-3,0
			c2.1,27.9,3.7,55.8,4,83.7c0.2,13.6,0,27.2-0.5,40.7c-0.5,14,1,28-2.6,41.7C372.6,533.8,375.5,534.6,376,532.7L376,532.7z"/>
	</g>
</g>
<g>
	<g>
		<path d="M375.2,533.6c3.6-5,6.9-10.2,9.2-16c2.5-6.4,3-13.3,3.7-20.2c1.5-14.9,1.9-30,1.5-45c-0.8-29.4-4.9-58.6-10.6-87.5
			c-0.4-1.9-3.3-1.1-2.9,0.8c5.5,28,9.5,56.3,10.4,84.8c0.4,14,0.1,28.1-1,42.1c-0.6,7.2-0.8,15.1-3.2,21.9
			c-2.2,6.4-5.8,12.1-9.7,17.6C371.5,533.6,374.1,535.1,375.2,533.6L375.2,533.6z"/>
	</g>
</g>
<g>
	<g>
		<path d="M380.9,535.5c21.6-15.4,20.2-46.3,19.4-69.8c-1.1-34.2-6.3-68.3-14.8-101.4c-0.5-1.9-3.4-1.1-2.9,0.8
			c8,31,13,62.7,14.5,94.7c1.1,23.5,4.2,57.5-17.7,73.1C377.8,534,379.3,536.6,380.9,535.5L380.9,535.5z"/>
	</g>
</g>
<g>
	<g>
		<path d="M380.4,537.5c11.9-6.5,21.3-16.6,26.9-28.9c6.2-13.7,7-29.2,6.4-44.1c-1.4-34.2-12.9-66.9-19.6-100.2
			c-0.4-1.9-3.3-1.1-2.9,0.8c6.3,31.3,16.9,62,19.2,94.1c1.1,14.9,1,30.9-4.4,44.9c-5.1,13.2-14.6,24.1-27.1,30.9
			C377.2,535.8,378.7,538.4,380.4,537.5L380.4,537.5z"/>
	</g>
</g>
<g>
	<g>
		<path d="M342.8,381.3c1.9,0,1.9-3,0-3C340.8,378.3,340.8,381.3,342.8,381.3L342.8,381.3z"/>
	</g>
</g>
<g>
	<g>
		<path d="M359.1,538.1c18.8,11,31.5-9.7,37.1-25.1c0.7-1.8-2.2-2.6-2.9-0.8c-4.9,13.4-15.8,33.2-32.7,23.3
			C359,534.6,357.5,537.2,359.1,538.1L359.1,538.1z"/>
	</g>
</g>
<g>
	<g>
		<path d="M344.9,367c-10.3,28.6-12.8,59.1-12.1,89.3c0.4,14.9,1.3,29.6,5.3,44c3.1,11.5,7.2,26.5,16.8,34.5
			c1.5,1.2,3.6-0.9,2.1-2.1c-4.9-4.1-8.2-10.8-10.5-16.7c-2.6-6.5-4.7-13.3-6.4-20c-3.5-14.3-4.1-28.8-4.3-43.4
			c-0.5-28.7,2.2-57.6,12-84.8C348.4,365.9,345.5,365.2,344.9,367L344.9,367z"/>
	</g>
</g>
<g>
	<g>
		<path d="M344.5,380.3c1.4-4.1,2.8-8.1,4.1-12.2c0.6-1.8-2.3-2.6-2.9-0.8c-1.4,4.1-2.8,8.1-4.1,12.2
			C340.9,381.3,343.8,382.1,344.5,380.3L344.5,380.3z"/>
	</g>
</g>
<g>
	<g>
		<linearGradient id="SVGID_11_" gradientUnits="userSpaceOnUse" x1="84.2188" y1="302.8281" x2="87.2188" y2="302.8281">
			<stop  offset="0" style="stop-color:#99E2D0"/>
			<stop  offset="0.5072" style="stop-color:#FF79DA"/>
			<stop  offset="1" style="stop-color:#9356DC"/>
		</linearGradient>
		<path fill="url(#SVGID_11_)" d="M87.2,307.1c0-2.9,0-5.7,0-8.6c0-1.9-3-1.9-3,0c0,2.9,0,5.7,0,8.6
			C84.2,309.1,87.2,309.1,87.2,307.1L87.2,307.1z"/>
	</g>
</g>
<linearGradient id="SVGID_12_" gradientUnits="userSpaceOnUse" x1="63.0032" y1="313.4448" x2="81.8843" y2="313.4448">
	<stop  offset="0" style="stop-color:#99E2D0"/>
	<stop  offset="0.5072" style="stop-color:#FF79DA"/>
	<stop  offset="1" style="stop-color:#9356DC"/>
</linearGradient>
<path fill="none" stroke="url(#SVGID_12_)" stroke-width="2" stroke-miterlimit="10" d="M68.4,297c-4.2,9.1-4.3,19.5-4.4,29.5
	c0,3,0.6,6.9,3.5,7.5c2.8,0.6,4.9-2.5,6-5.2c2.8-6.6,5-13.5,6.5-20.6c0.8-3.7,1.4-7.7-0.2-11.1c-1.7-3.4-6.5-5.5-9.4-3
	C69.5,294.7,68.9,295.8,68.4,297z"/>
<linearGradient id="SVGID_13_" gradientUnits="userSpaceOnUse" x1="48.3425" y1="312.7757" x2="93.5433" y2="312.7757">
	<stop  offset="0" style="stop-color:#99E2D0"/>
	<stop  offset="0.5072" style="stop-color:#FF79DA"/>
	<stop  offset="1" style="stop-color:#9356DC"/>
</linearGradient>
<path fill="url(#SVGID_13_)" stroke="#000000" stroke-width="4" stroke-miterlimit="10" d="M86.9,333.2c-1,1.5-2,2.9-3.4,4
	c-2.1,1.7-4.7,2.7-7.4,3.3c-6.1,1.4-12.6,1.2-18.7-0.6c-2.5-0.7-4.9-1.8-6.5-3.8c-1.8-2.3-2.2-5.3-2.4-8.2c-0.6-8.8-0.3-17.9,3-26.1
	c3.4-8.2,10.2-15.3,18.9-17.1c3.3-0.7,6.8-0.5,10,0.4c2.2,0.6,4.4,1.6,6,3.2c1.4,1.4,2.4,3.1,3.2,4.9
	C95.7,305.8,94.6,321.5,86.9,333.2z"/>
<linearGradient id="SVGID_14_" gradientUnits="userSpaceOnUse" x1="86.1886" y1="303.2248" x2="140.8136" y2="303.2248">
	<stop  offset="0" style="stop-color:#99E2D0"/>
	<stop  offset="0.5072" style="stop-color:#FF79DA"/>
	<stop  offset="1" style="stop-color:#9356DC"/>
</linearGradient>
<path fill="url(#SVGID_14_)" stroke="#000000" stroke-width="4" stroke-miterlimit="10" d="M102.8,283c-0.6-4.1-1.6-8.1-2.8-12
	c3.3-2.4,4.8-4.7,8.7-5.9c3.9-1.2,8.4-1,11.6,1.5c4.1,3.2,4.9,9.3,3.8,14.4c-1,5.1-3.5,9.9-4.6,15c2.1-4.2,5.6-7.7,9.9-9.8
	c1.6-0.8,3.5-1.4,5.2-0.9c2.5,0.8,3.7,3.5,4.4,6c2.3,8.1,2.3,17-0.1,25.1c-1.5,5.2-4,10.5-3.3,15.9c2.1-2,3.8-4.5,4.9-7.2
	c0.2,4.7-1.1,9.5-4.3,12.9c-3.2,3.4-8.5,4.9-12.8,2.9c-6.2-2.9-7.4-11.3-5.9-17.9c1.5-6.6,5-12.9,5.1-19.7c0-1.7-0.8-4.1-2.5-3.8
	c-0.7,0.1-1.2,0.7-1.7,1.2c-8.2,9.7-9,23.7-6.8,36.2c0.2,1.1,0.4,2.3-0.2,3.3c-0.8,1.3-2.5,1.5-4,1.5c-5.7,0.2-11.3,0-17-0.6
	c-2.1-0.2-4.8-1.3-4.3-3.3c0.2-0.8,0.8-1.4,1.4-1.9c8.5-8.4,10.8-21,12.3-32.9C100.8,295.4,104,290.7,102.8,283z"/>
<linearGradient id="SVGID_15_" gradientUnits="userSpaceOnUse" x1="139.3797" y1="314.5423" x2="214.7639" y2="314.5423">
	<stop  offset="0" style="stop-color:#99E2D0"/>
	<stop  offset="0.5072" style="stop-color:#FF79DA"/>
	<stop  offset="1" style="stop-color:#9356DC"/>
</linearGradient>
<path fill="url(#SVGID_15_)" stroke="#000000" stroke-width="4" stroke-miterlimit="10" d="M198.1,302.1c0.1,9.9-5.9,19.3-4.9,29.1
	c0.3,3.5,1.9,7.3,5.2,8.4c1.7,0.6,3.5,0.4,5.3,0.1c3.2-0.5,6.6-1.5,8.8-4c2.1-2.5,2.3-6.9-0.5-8.6c-0.6-0.4-1.3-0.6-1.6-1.2
	c-0.4-0.7-0.2-1.6,0.1-2.3c2.7-8.2,5.5-16.7,3.9-25.1c-0.5-2.4-1.3-4.9-3.1-6.6c-3-3-8-3-11.9-1.2c-3.9,1.8-6.8,5-9.7,8.1
	c1.8-4.8-2.8-10.4-7.9-10.8s-10,3.2-12.5,7.7c-1.5-3.9-5.1-6.8-9.2-7.6c-4.1-0.8-8.5,0.7-11.3,3.7c2.4,16.5-0.9,33.7-9.3,48
	c6.8,1.7,13.9,2,20.8,0.8c1.8-0.3,3.9-0.9,4.7-2.6c0.6-1.3,0.3-2.7,0-4.1c-1.3-5.8-2.2-11.8-1.3-17.7c0.8-5.9,3.5-11.7,8.2-15.4
	c3.5,2.1,1.7,7.3,0.2,11c-2.1,4.9-3.2,10.1-3.3,15.4c0,3.3,0.4,6.9,2.7,9.3c2.8,3,7.6,3.3,11.2,1.4s6-5.5,7.2-9.4
	c-1.2,0-2.4-0.1-3.6-0.1c0.2-5.1,0.5-10.3,2.2-15.2C189.9,308.4,193.3,303.9,198.1,302.1z"/>
<path fill="none" d="M233.3,357.5c0.8-0.2,1.6-0.3,2.4-0.5c5.4-3.3,9.5-8.5,12.9-13.9c10.4-16.2,16.9-36.8,9.9-54.8
	c-0.3-0.8-0.6-1.6-1.2-2.2c-1.4-1.6-4.1-1.7-6-0.6s-3,3.1-3.7,5.1c-1.5,4.3-1.4,9.1,0.3,13.2c0.9,2.1,2.1,4,2.7,6.2
	c1.4,4.7-0.3,9.8-2.3,14.2c-0.5,1.2-1.3,2.5-2.5,2.7c-2.3,0.4-3.4-2.6-3.6-4.9c-0.6-7.1-1.1-14.1-1.7-21.2c-0.2-2.9-0.5-5.9-1.7-8.5
	s-3.5-5-6.3-5.4c-5.3-0.8-9.2,4.7-11.7,9.5c-1.4,2.6-2.7,5.9-0.9,8.3c0.6,0.8,1.6,1.4,2.2,2.2c0.7,0.9,1,2,1.2,3.1
	c1.1,5.5,0.9,11.1,1.8,16.6c0.8,5.5,3,11.2,7.6,14.4c0.7,0.5,1.5,1,1.8,1.7c0.6,1.5-0.8,3-2,4c-1.2,1-2.6,2.1-4.1,2.4
	c-1.6,0.3-3.5-0.4-3.9-1.9c-0.4-1.2,0.3-2.5,0.4-3.8c0.3-3.9-4.7-6.4-8.3-5c-1.2,0.5-2.3,1.2-3.1,2.1c-4.6,4.8-2.6,13.5,2.9,17.2
	c4.1,2.7,9.3,3,14.1,1.6C231,358.5,231.9,357.8,233.3,357.5z"/>
<linearGradient id="SVGID_16_" gradientUnits="userSpaceOnUse" x1="258.9205" y1="302.482" x2="304.2282" y2="302.482">
	<stop  offset="0" style="stop-color:#99E2D0"/>
	<stop  offset="0.5072" style="stop-color:#FF79DA"/>
	<stop  offset="1" style="stop-color:#9356DC"/>
</linearGradient>
<path fill="url(#SVGID_16_)" d="M301.4,269.3c-0.3,0-0.5,0.1-0.8,0.1c-2.7,0-4.3-1.8-4.7-3.8c-0.8-0.3-1.6-0.6-2.5-0.9
	c-6.5-1.7-13.9-0.2-18.7,4.4s-6.6,12.4-3.6,18.4c-2.2,1-5.8-1.4-6.8,0.8c-0.4,0.7-0.1,1.5,0,2.3c4.2,16.5,2.3,34.4-5.4,49.6
	c6.4,1,12.8,1.1,19.2,0.5c1.5-0.2,3.5-0.8,3.4-2.4c0-0.9-0.8-1.6-1.3-2.4c-0.7-1.2-0.5-2.7-0.3-4.1c1.5-11.1,3.1-22.2,4.6-33.3
	c0.1-0.5,0.1-0.9,0.4-1.3c1.2-2.2,4.7-0.2,7-1.1c1.5-0.6,2.2-2.5,1.7-4.1c-0.5-1.5-2-2.6-3.6-2.9c-1.7-0.3-3.6,0.1-5.2-0.6
	c-3.2-1.4-3-5.9-2-9.3c0.9-2.9,3.6-6.3,6.2-4.7c1.7,1.1,1.4,3.7,2.1,5.7c1.3,3.9,7,5.1,10.2,2.5c3.2-2.6,3.7-7.6,1.9-11.2
	C302.7,270.8,302.1,270,301.4,269.3z"/>
<linearGradient id="SVGID_17_" gradientUnits="userSpaceOnUse" x1="213.1929" y1="322.1064" x2="260.4066" y2="322.1064">
	<stop  offset="0" style="stop-color:#99E2D0"/>
	<stop  offset="0.5072" style="stop-color:#FF79DA"/>
	<stop  offset="1" style="stop-color:#9356DC"/>
</linearGradient>
<path fill="url(#SVGID_17_)" stroke="#000000" stroke-width="4" stroke-miterlimit="10" d="M222.4,304.2c-1.3-4-1.3-8.6,1-12.1
	c2.2-3.5,7-5.6,10.9-3.9c5.1,2.2,6.2,8.8,6.6,14.4c0.4,6.5,0.8,13,1.2,19.5c0.1,1.3,0.3,2.9,1.5,3.4c1.6,0.7,3.1-1,4.1-2.5
	c2-3.2,4-6.8,3.1-10.4c-0.4-1.4-1.2-2.6-1.8-4c-1.8-4-1.9-8.5-1.5-12.8c0.2-2.3,0.6-4.6,1.8-6.6s3.4-3.4,5.7-3.1
	c4.1,0.6,5.4,5.9,5.5,10.1c0.2,10.8-0.9,21.8-4.6,32c-3.7,10.2-10.2,19.6-19.2,25.6c-5.3,3.6-12.7,5.8-18,2.2
	c-4.1-2.7-5.6-8.1-5.4-13c0.1-2.7,1.3-6,4-6.4c3-0.4,4.9,3.2,5.3,6.2c0.2,1.2,0.3,2.5,1.1,3.5c1.5,1.8,4.6,1.2,5.9-0.7
	c1.3-1.9,1.2-4.4,0.4-6.6s-2.1-4-3.1-6.1c-3-6-2.9-13.1-2.9-19.8c0-2.1,0-4.2-1-6c-1-1.8-3.2-3.1-5.1-2.4c1.4-4.9,3.4-9.7,6-14.1"/>
<path fill="none" d="M320.7,339.2c12.1-7,18-22.6,15.2-36.4c-0.8-3.9-2.2-7.7-4.9-10.7c-4.5-5-12.2-6.5-18.6-4.6
	c-6.5,1.9-11.8,6.7-15.4,12.4c-5.2,8.3-7.1,18.7-5.1,28.3c0.5,2.6,1.4,5.1,2.8,7.3c2.7,4,7.4,6.4,12.2,6.9
	C311.7,343,316.5,341.6,320.7,339.2z"/>
<path fill="none" d="M309.6,330.9c1.5,1.5,3.9-0.5,5-2.4c5.1-9.6,6.4-21.2,3.3-31.6c-8.5,8.1-12.1,21-9.1,32.4
	C308.9,329.9,309.1,330.5,309.6,330.9z"/>
<linearGradient id="SVGID_18_" gradientUnits="userSpaceOnUse" x1="291.4197" y1="312.892" x2="336.6652" y2="312.892">
	<stop  offset="0" style="stop-color:#99E2D0"/>
	<stop  offset="0.5072" style="stop-color:#FF79DA"/>
	<stop  offset="1" style="stop-color:#9356DC"/>
</linearGradient>
<path fill="url(#SVGID_18_)" stroke="#000000" stroke-width="4" stroke-miterlimit="10" d="M291.5,319.7c0.5-5.6,1.1-11.2,2.8-16.6
	c1.7-5.3,4.8-10.4,9.5-13.5c3.1-2.1,6.8-3.2,10.4-3.9c2.3-0.5,4.6-0.8,6.8-0.4c3.7,0.6,6.9,2.8,9.4,5.6
	c14.1,15.5,2.7,48.1-18.8,49.8c-3.7,0.3-7.7,0.5-10.7-1.6c-1.6-1.1-2.7-2.8-3.8-4.4C294.1,329.8,291,325.3,291.5,319.7z"/>
<linearGradient id="SVGID_19_" gradientUnits="userSpaceOnUse" x1="338.8458" y1="314.7189" x2="384.0913" y2="314.7189">
	<stop  offset="0" style="stop-color:#99E2D0"/>
	<stop  offset="0.5072" style="stop-color:#FF79DA"/>
	<stop  offset="1" style="stop-color:#9356DC"/>
</linearGradient>
<path fill="url(#SVGID_19_)" stroke="#000000" stroke-width="4" stroke-miterlimit="10" d="M338.9,321.5c0.5-5.6,1.1-11.2,2.8-16.6
	c1.7-5.3,4.8-10.4,9.5-13.5c3.1-2.1,6.8-3.2,10.4-3.9c2.3-0.5,4.6-0.8,6.8-0.4c3.7,0.6,6.9,2.8,9.4,5.6
	c14.1,15.5,2.7,48.1-18.8,49.8c-3.7,0.3-7.7,0.5-10.7-1.6c-1.6-1.1-2.7-2.8-3.8-4.4C341.6,331.6,338.4,327.1,338.9,321.5z"/>
<linearGradient id="SVGID_20_" gradientUnits="userSpaceOnUse" x1="385.3661" y1="303.0063" x2="432.8493" y2="303.0063">
	<stop  offset="0" style="stop-color:#99E2D0"/>
	<stop  offset="0.5072" style="stop-color:#FF79DA"/>
	<stop  offset="1" style="stop-color:#9356DC"/>
</linearGradient>
<path fill="url(#SVGID_20_)" stroke="#000000" stroke-width="4" stroke-miterlimit="10" d="M412.9,273.9c1.9,0.3,2,3,1.6,4.8
	c-0.9,3.7-2,7.4-3.4,10.9c-4-3.5-10.3-3.9-14.7-0.9c-2.7,1.8-4.5,4.7-5.9,7.6c-5.5,11-6.6,24.1-3,35.8c1.1,3.5,2.8,7.2,6.1,8.7
	c5.4,2.4,11.5-2.3,14.4-7.5c1.5,2,2.9,4,4.4,6c7.1,1.9,15.2-4.5,15-11.9c-1.1,1.8-4.3,0.9-5.1-1.1c-0.8-2-0.1-4.2,0.6-6.2
	c4.8-14,8.1-28.5,9.8-43.3c0.3-2.7,0.5-5.7-0.8-8.1c-1.7-3-5.4-4.4-8.8-4.2c-3.4,0.1-6.6,1.5-9.8,2.9c-1.5,0.6-3,1.4-3.8,2.8
	c-0.8,1.4-0.2,3.6,1.4,3.9C411.5,274.1,412.2,273.8,412.9,273.9z"/>
<path fill="#FFFFFF" stroke="#000000" stroke-width="4" stroke-miterlimit="10" d="M72.2,297.5c-6.3,10.3-8.6,23-6.6,34.9
	c2.5-0.6,4.1-2.9,5.3-5.2c4.8-9.4,6-20.5,3.3-30.7C73.5,296,72.7,296.8,72.2,297.5z"/>
<path fill="#FFFFFF" stroke="#000000" stroke-width="4" stroke-miterlimit="10" d="M310,333c3.3-0.5,4.8-4.3,5.5-7.6
	c2-8.3,3.3-16.9,3.9-25.4c0.1-1.1,0.1-2.2-0.4-3.1c-0.5-0.9-1.7-1.6-2.7-1.1c-0.6,0.3-0.9,0.9-1.1,1.5c-3,6.7-5.2,13.8-6.6,21
	C307.6,323.3,307.1,328.9,310,333z"/>
<linearGradient id="SVGID_21_" gradientUnits="userSpaceOnUse" x1="355.2001" y1="314.374" x2="365.9458" y2="314.374">
	<stop  offset="0" style="stop-color:#99E2D0"/>
	<stop  offset="0.5072" style="stop-color:#FF79DA"/>
	<stop  offset="1" style="stop-color:#9356DC"/>
</linearGradient>
<path fill="url(#SVGID_21_)" stroke="#000000" stroke-width="4" stroke-miterlimit="10" d="M361.8,327.8c2.7-8,4.1-16.5,4.2-24.9
	c0-2.2-0.3-4.8-2.2-5.9c-5.7,8.9-8.7,19.4-8.6,29.9c0,2,0.6,4.5,2.5,4.8C359.7,332.1,361.1,329.8,361.8,327.8z"/>
<linearGradient id="SVGID_22_" gradientUnits="userSpaceOnUse" x1="401.2327" y1="310.9337" x2="412.0566" y2="310.9337">
	<stop  offset="0" style="stop-color:#99E2D0"/>
	<stop  offset="0.5072" style="stop-color:#FF79DA"/>
	<stop  offset="1" style="stop-color:#9356DC"/>
</linearGradient>
<path fill="url(#SVGID_22_)" stroke="#000000" stroke-width="4" stroke-miterlimit="10" d="M402.8,326.8c1.5,0.6,2.6-1.3,3.1-2.8
	c2.3-7.8,4.4-15.7,6-23.7c0.4-2.1,0.2-5-1.9-5.2c-1.4-0.1-2.5,1.2-3.2,2.5c-4.4,8.1-6.3,17.5-5.4,26.6
	C401.5,325.2,401.8,326.4,402.8,326.8z"/>
<path fill="none" d="M116.4,252.8c-0.3-15.7-1-31.4-2-47.1c-0.2-3.1-0.4-6.3-2.1-8.9c-1.3-2.1-3.5-3.4-5.4-4.9
	c-5-3.8-9.2-8.5-12.4-13.8c-1.4-2.2-2.6-4.7-2.9-7.3c-0.4-3.2,0.5-6.3,1.3-9.4c3.9-15.4,4.8-31.5,2.8-47.3c-0.5-4.3-1.4-8.8-4-12.4
	c-2.6-3.5-7.4-5.8-11.5-4.2c-5.4,2.1-6.5,9.2-6.7,15c-0.5,22.3,0.1,45.3,4.4,67.2c-4.5,1.2-8.1,5-9.1,9.5c-0.2,0.9-0.5,1.9-1.3,2.2
	c-0.7,0.2-1.4-0.2-2-0.5c-2.5-1.1-5.5,0.5-7,2.8c-1.5,2.3-1.8,5.1-2.1,7.9c-1.9,19.2-3,38.6-3.2,57.9
	C74,254.6,95.2,253.3,116.4,252.8z"/>
<g>
	<g>
		<linearGradient id="SVGID_23_" gradientUnits="userSpaceOnUse" x1="291.3397" y1="269.5" x2="291.327" y2="272.5">
			<stop  offset="0" style="stop-color:#99E2D0"/>
			<stop  offset="0.5072" style="stop-color:#FF79DA"/>
			<stop  offset="1" style="stop-color:#9356DC"/>
		</linearGradient>
		<path fill="url(#SVGID_23_)" d="M291.3,272.5c1.9,0,1.9-3,0-3C289.4,269.5,289.4,272.5,291.3,272.5L291.3,272.5z"/>
	</g>
</g>
<g>
	<g>
		<linearGradient id="SVGID_24_" gradientUnits="userSpaceOnUse" x1="294.0064" y1="265.5" x2="293.9936" y2="268.5">
			<stop  offset="0" style="stop-color:#99E2D0"/>
			<stop  offset="0.5072" style="stop-color:#FF79DA"/>
			<stop  offset="1" style="stop-color:#9356DC"/>
		</linearGradient>
		<path fill="url(#SVGID_24_)" d="M294,268.5c1.9,0,1.9-3,0-3C292.1,265.5,292.1,268.5,294,268.5L294,268.5z"/>
	</g>
</g>
<g>
	<g>
		<linearGradient id="SVGID_25_" gradientUnits="userSpaceOnUse" x1="294.0064" y1="265.5" x2="293.9936" y2="268.5">
			<stop  offset="0" style="stop-color:#99E2D0"/>
			<stop  offset="0.5072" style="stop-color:#FF79DA"/>
			<stop  offset="1" style="stop-color:#9356DC"/>
		</linearGradient>
		<path fill="url(#SVGID_25_)" d="M294,268.5c1.9,0,1.9-3,0-3C292.1,265.5,292.1,268.5,294,268.5L294,268.5z"/>
	</g>
</g>
<g>
	<g>
		<linearGradient id="SVGID_26_" gradientUnits="userSpaceOnUse" x1="297.0415" y1="266.0691" x2="297.026" y2="269.7225">
			<stop  offset="0" style="stop-color:#99E2D0"/>
			<stop  offset="0.5072" style="stop-color:#FF79DA"/>
			<stop  offset="1" style="stop-color:#9356DC"/>
		</linearGradient>
		<path fill="url(#SVGID_26_)" d="M295.6,269c0.7,0.2,1.3,0.4,2,0.6c0.7,0.2,1.7-0.3,1.8-1c0.2-0.8-0.2-1.6-1-1.8
			c-0.7-0.2-1.3-0.4-2-0.6c-0.7-0.2-1.7,0.3-1.8,1C294.4,268,294.8,268.8,295.6,269L295.6,269z"/>
	</g>
</g>
<g>
	<g>
		<path d="M371.7,536.7c1.1-1.3,2.2-2.7,3.3-4c0.5-0.6,0.6-1.5,0-2.1c-0.5-0.5-1.6-0.6-2.1,0c-1.1,1.3-2.2,2.7-3.3,4
			c-0.5,0.6-0.6,1.5,0,2.1C370.1,537.3,371.2,537.4,371.7,536.7L371.7,536.7z"/>
	</g>
</g>
<g>
	<g>
		<path d="M369.7,536.7c2.6-2.7,5.3-5.4,7.9-8.1c1.4-1.4-0.8-3.5-2.1-2.1c-2.6,2.7-5.3,5.4-7.9,8.1
			C366.2,536,368.4,538.1,369.7,536.7L369.7,536.7z"/>
	</g>
</g>
<g>
	<g>
		<path d="M364,541.2c1.9,0,1.9-3,0-3C362.1,538.2,362.1,541.2,364,541.2L364,541.2z"/>
	</g>
</g>
<g>
	<g>
		<path d="M366.7,540.4c5.3-0.4,10.3-1.9,14.8-4.7c1.7-1,0.1-3.6-1.5-2.6c-4.1,2.5-8.5,3.9-13.3,4.3
			C364.7,537.6,364.7,540.6,366.7,540.4L366.7,540.4z"/>
	</g>
</g>
<g>
	<g>
		<path d="M353.9,534.3c2.4,1.3,4.9,2.7,7.3,4c1.7,0.9,3.2-1.7,1.5-2.6c-2.4-1.3-4.9-2.7-7.3-4C353.7,530.8,352.2,533.4,353.9,534.3
			L353.9,534.3z"/>
	</g>
</g>
<g>
	<g>
		<path d="M352.8,533.7c2,3.2,5.1,5.4,8.8,6.1c1.9,0.4,2.7-2.5,0.8-2.9c-2.9-0.6-5.4-2.2-7-4.7C354.3,530.6,351.7,532.1,352.8,533.7
			L352.8,533.7z"/>
	</g>
</g>
<linearGradient id="SVGID_27_" gradientUnits="userSpaceOnUse" x1="259.1504" y1="302.5664" x2="302.5764" y2="302.5664">
	<stop  offset="0" style="stop-color:#99E2D0"/>
	<stop  offset="0.5072" style="stop-color:#FF79DA"/>
	<stop  offset="1" style="stop-color:#9356DC"/>
</linearGradient>
<path fill="url(#SVGID_27_)" stroke="#000000" stroke-width="4" stroke-miterlimit="10" d="M269.4,287.6c-3.1-8.1,0.5-18.2,8.1-22.4
	c7.6-4.2,18.2-1.8,23,5.4c3.1,4.5,3,12.1-2.1,14.2c-3.5,1.4-7.8-1-9.1-4.5c-0.8-2.4-1.1-5.9-3.6-6.4c-1.1-0.2-2.1,0.3-3,1
	c-2.4,1.9-3.6,5.3-2.9,8.3c0.7,3,3.3,5.5,6.4,6.1c1.8,0.4,3.9,0.2,5,1.6c1.8,2.2-0.9,5.5-3.7,5.9c-1.3,0.2-2.6,0-3.7,0.6
	c-2,1-2.2,3.7-2.3,5.9c-0.3,11.4-0.5,22.8-0.8,34.1c0,1.1-0.1,2.3-0.9,3.1c-0.5,0.5-1.2,0.6-1.8,0.8c-6.3,1.4-12.9,0.8-18.9-1.6
	c5.6-17,11-35.9,3.9-52.3C265.2,287.4,267.3,287.5,269.4,287.6z"/>
</svg>
